<svg xmlns="http://www.w3.org/2000/svg" xmlns:xlink="http://www.w3.org/1999/xlink" width="500" zoomAndPan="magnify" viewBox="0 0 375 374.999991" height="500" preserveAspectRatio="xMidYMid meet" version="1.0"><defs><g/></defs><path stroke-linecap="butt" transform="matrix(1.38609, 0, 0, 1.38609, -128.379553, -125.099464)" fill="none" stroke-linejoin="miter" d="M 233.004667 141.688059 C 234.137575 141.688059 235.318392 142.065695 236.547118 142.820967 C 237.775844 143.672056 238.860843 144.616146 239.807751 145.656054 C 240.656023 146.693144 241.366204 147.82887 241.932658 149.057596 C 242.499112 150.094686 242.68793 151.086685 242.499112 152.033593 L 212.595417 288.512353 C 212.502417 289.267625 211.888054 290.259624 210.752328 291.48835 C 209.808238 292.717076 208.579512 293.849984 207.068968 294.889892 C 206.313697 295.456346 205.58097 295.952345 204.870789 296.37789 C 204.163426 296.803435 203.4307 297.251525 202.675428 297.724979 C 200.973248 298.480251 199.651522 298.857887 198.707432 298.857887 L 103.4699 298.857887 L 133.088958 163.652944 L 116.365886 141.688059 Z M 170.787735 172.01448 L 149.671122 268.528648 L 177.590819 268.528648 L 198.707432 172.01448 Z M 170.787735 172.01448 " stroke="#ffffff" stroke-width="11.247381" stroke-opacity="1" stroke-miterlimit="4"/><g fill="#000000" fill-opacity="1"><g transform="translate(15.037469, 289.341512)"><g><path d="M 179.546875 -218.046875 C 181.117188 -218.046875 182.753906 -217.523438 184.453125 -216.484375 C 186.160156 -215.296875 187.671875 -213.984375 188.984375 -212.546875 C 190.160156 -211.109375 191.140625 -209.535156 191.921875 -207.828125 C 192.710938 -206.390625 192.972656 -205.015625 192.703125 -203.703125 L 151.265625 -14.53125 C 151.128906 -13.488281 150.273438 -12.113281 148.703125 -10.40625 C 147.390625 -8.707031 145.6875 -7.140625 143.59375 -5.703125 C 142.550781 -4.910156 141.535156 -4.21875 140.546875 -3.625 C 139.566406 -3.039062 138.554688 -2.421875 137.515625 -1.765625 C 135.148438 -0.722656 133.316406 -0.203125 132.015625 -0.203125 L 0 -0.203125 L 41.0625 -187.609375 L 17.875 -218.046875 Z M 93.3125 -176.015625 L 64.046875 -42.234375 L 102.734375 -42.234375 L 132.015625 -176.015625 Z M 93.3125 -176.015625 "/></g></g></g><path stroke-linecap="butt" transform="matrix(1.38609, 0, 0, 1.38609, 37.500002, -125.099464)" fill="none" stroke-linejoin="miter" d="M 229.394112 141.688059 C 230.529838 141.688059 231.710655 142.065695 232.936563 142.820967 C 234.165289 143.672056 235.253106 144.616146 236.197196 145.656054 C 237.048286 146.693144 237.755648 147.82887 238.322102 149.057596 C 238.891374 150.094686 239.080192 151.086685 238.891374 152.033593 L 208.98768 288.512353 C 208.891862 289.267625 208.277499 290.259624 207.144591 291.48835 C 206.200501 292.717076 204.971775 293.849984 203.458413 294.889892 C 202.703141 295.456346 201.970415 295.952345 201.263052 296.37789 C 200.552871 296.803435 199.822962 297.251525 199.064872 297.724979 C 197.365511 298.480251 196.043785 298.857887 195.096877 298.857887 L 99.859344 298.857887 L 129.478403 163.652944 L 112.75533 141.688059 Z M 167.17718 172.01448 L 146.060567 268.528648 L 173.980263 268.528648 L 195.096877 172.01448 Z M 167.17718 172.01448 " stroke="#ffffff" stroke-width="11.247381" stroke-opacity="1" stroke-miterlimit="4"/><g fill="#1791c8" fill-opacity="1"><g transform="translate(175.914105, 289.341512)"><g><path d="M 179.546875 -218.046875 C 181.117188 -218.046875 182.753906 -217.523438 184.453125 -216.484375 C 186.160156 -215.296875 187.671875 -213.984375 188.984375 -212.546875 C 190.160156 -211.109375 191.140625 -209.535156 191.921875 -207.828125 C 192.710938 -206.390625 192.972656 -205.015625 192.703125 -203.703125 L 151.265625 -14.53125 C 151.128906 -13.488281 150.273438 -12.113281 148.703125 -10.40625 C 147.390625 -8.707031 145.6875 -7.140625 143.59375 -5.703125 C 142.550781 -4.910156 141.535156 -4.21875 140.546875 -3.625 C 139.566406 -3.039062 138.554688 -2.421875 137.515625 -1.765625 C 135.148438 -0.722656 133.316406 -0.203125 132.015625 -0.203125 L 0 -0.203125 L 41.0625 -187.609375 L 17.875 -218.046875 Z M 93.3125 -176.015625 L 64.046875 -42.234375 L 102.734375 -42.234375 L 132.015625 -176.015625 Z M 93.3125 -176.015625 "/></g></g></g><g fill="#000000" fill-opacity="1"><g transform="translate(14.726827, 347.743742)"><g><path d="M 18.28125 -25.28125 C 18.382812 -24.113281 18.429688 -22.960938 18.421875 -21.828125 C 18.410156 -20.691406 18.351562 -19.582031 18.25 -18.5 L 8.203125 -17.546875 L 8.234375 -15.171875 L 17.875 -16 L 17.875 -9.5 C 17.695312 -9.457031 16.8125 -9.363281 15.21875 -9.21875 C 13.625 -9.070312 11.328125 -8.867188 8.328125 -8.609375 L 8.359375 -6.34375 C 14.585938 -7.070312 17.90625 -7.414062 18.3125 -7.375 C 18.5 -4.71875 18.5 -2.503906 18.3125 -0.734375 C 14.238281 -0.117188 8.453125 0.367188 0.953125 0.734375 C 0.847656 -2.960938 0.789062 -6.828125 0.78125 -10.859375 C 0.769531 -14.898438 0.816406 -19.148438 0.921875 -23.609375 C 7.566406 -24.535156 13.351562 -25.09375 18.28125 -25.28125 Z M 18.28125 -25.28125 "/></g></g></g><g fill="#000000" fill-opacity="1"><g transform="translate(33.961866, 347.743742)"><g><path d="M 17.359375 -0.0625 C 14.234375 0.65625 11.4375 0.898438 8.96875 0.671875 C 7.550781 -2.960938 6.164062 -6.726562 4.8125 -10.625 C 3.457031 -14.519531 2.109375 -18.59375 0.765625 -22.84375 C 2.046875 -23.539062 4.71875 -24.140625 8.78125 -24.640625 C 9.75 -21.347656 10.582031 -18.554688 11.28125 -16.265625 C 11.976562 -13.972656 12.566406 -12.148438 13.046875 -10.796875 C 13.703125 -13.234375 14.316406 -15.648438 14.890625 -18.046875 C 15.460938 -20.441406 16.007812 -22.84375 16.53125 -25.25 C 20.375 -25.476562 22.972656 -25.300781 24.328125 -24.71875 C 22.660156 -18.5 21.242188 -13.347656 20.078125 -9.265625 C 18.921875 -5.179688 18.015625 -2.113281 17.359375 -0.0625 Z M 17.359375 -0.0625 "/></g></g></g><g fill="#000000" fill-opacity="1"><g transform="translate(59.053727, 347.743742)"><g><path d="M 18.28125 -25.28125 C 18.382812 -24.113281 18.429688 -22.960938 18.421875 -21.828125 C 18.410156 -20.691406 18.351562 -19.582031 18.25 -18.5 L 8.203125 -17.546875 L 8.234375 -15.171875 L 17.875 -16 L 17.875 -9.5 C 17.695312 -9.457031 16.8125 -9.363281 15.21875 -9.21875 C 13.625 -9.070312 11.328125 -8.867188 8.328125 -8.609375 L 8.359375 -6.34375 C 14.585938 -7.070312 17.90625 -7.414062 18.3125 -7.375 C 18.5 -4.71875 18.5 -2.503906 18.3125 -0.734375 C 14.238281 -0.117188 8.453125 0.367188 0.953125 0.734375 C 0.847656 -2.960938 0.789062 -6.828125 0.78125 -10.859375 C 0.769531 -14.898438 0.816406 -19.148438 0.921875 -23.609375 C 7.566406 -24.535156 13.351562 -25.09375 18.28125 -25.28125 Z M 18.28125 -25.28125 "/></g></g></g><g fill="#000000" fill-opacity="1"><g transform="translate(78.288766, 347.743742)"><g><path d="M 0.921875 -23.890625 L 7.890625 -25.59375 C 8.984375 -24.175781 10.125 -22.597656 11.3125 -20.859375 C 12.507812 -19.117188 13.785156 -17.191406 15.140625 -15.078125 C 14.972656 -17.742188 14.941406 -21.070312 15.046875 -25.0625 C 18.640625 -25.375 21.25 -25.363281 22.875 -25.03125 C 23.125 -16.03125 23.125 -8.078125 22.875 -1.171875 C 21.644531 -0.703125 20.546875 -0.34375 19.578125 -0.09375 C 18.609375 0.15625 17.753906 0.269531 17.015625 0.25 C 14.878906 -3 12.054688 -6.875 8.546875 -11.375 L 8.546875 0.25 C 4.429688 0.4375 1.878906 0.40625 0.890625 0.15625 C 0.804688 -3.394531 0.769531 -7.160156 0.78125 -11.140625 C 0.789062 -15.117188 0.835938 -19.367188 0.921875 -23.890625 Z M 0.921875 -23.890625 "/></g></g></g><g fill="#000000" fill-opacity="1"><g transform="translate(102.116786, 347.743742)"><g><path d="M 15.5 -18.0625 C 15.539062 -14.300781 15.5625 -10.988281 15.5625 -8.125 C 15.5625 -5.257812 15.523438 -2.816406 15.453125 -0.796875 C 13.640625 -0.515625 12.085938 -0.320312 10.796875 -0.21875 C 9.515625 -0.113281 8.472656 -0.101562 7.671875 -0.1875 C 7.628906 -2.914062 7.597656 -5.703125 7.578125 -8.546875 C 7.554688 -11.398438 7.566406 -14.347656 7.609375 -17.390625 C 5.597656 -17.203125 3.378906 -17.015625 0.953125 -16.828125 C 0.847656 -17.898438 0.789062 -19.046875 0.78125 -20.265625 C 0.769531 -21.492188 0.816406 -22.804688 0.921875 -24.203125 C 4.660156 -24.628906 8.3125 -25.003906 11.875 -25.328125 C 15.445312 -25.660156 18.96875 -25.941406 22.4375 -26.171875 C 22.539062 -23.910156 22.515625 -21.457031 22.359375 -18.8125 C 21.816406 -18.6875 19.53125 -18.4375 15.5 -18.0625 Z M 15.5 -18.0625 "/></g></g></g><g fill="#1791c8" fill-opacity="1"><g transform="translate(138.122336, 345.133406)"><g><path d="M 7.875 -8.578125 C 7.851562 -7.378906 7.84375 -6.113281 7.84375 -4.78125 C 7.84375 -3.457031 7.835938 -2.039062 7.828125 -0.53125 C 6.703125 -0.363281 5.566406 -0.222656 4.421875 -0.109375 C 3.285156 0.00390625 2.128906 0.078125 0.953125 0.109375 C 0.804688 -3.992188 0.722656 -7.847656 0.703125 -11.453125 C 0.679688 -15.066406 0.707031 -18.488281 0.78125 -21.71875 C 2.257812 -22.207031 3.648438 -22.609375 4.953125 -22.921875 C 6.265625 -23.242188 7.492188 -23.476562 8.640625 -23.625 C 8.898438 -23.125 9.210938 -22.429688 9.578125 -21.546875 C 9.941406 -20.671875 10.363281 -19.597656 10.84375 -18.328125 C 11.332031 -17.078125 11.757812 -16.050781 12.125 -15.25 C 12.488281 -14.445312 12.773438 -13.859375 12.984375 -13.484375 C 13.765625 -14.617188 15.144531 -17.773438 17.125 -22.953125 C 19.351562 -23.117188 21.914062 -23.019531 24.8125 -22.65625 C 24.90625 -19.53125 24.953125 -16.144531 24.953125 -12.5 C 24.960938 -8.851562 24.921875 -4.890625 24.828125 -0.609375 C 23.765625 -0.460938 22.660156 -0.332031 21.515625 -0.21875 C 20.378906 -0.113281 19.195312 -0.03125 17.96875 0.03125 C 17.894531 -0.269531 17.847656 -2.894531 17.828125 -7.84375 C 14.742188 -1.925781 13.085938 1.050781 12.859375 1.09375 Z M 7.875 -8.578125 "/></g></g></g><g fill="#1791c8" fill-opacity="1"><g transform="translate(163.792631, 345.133406)"><g><path d="M 8.359375 -2.71875 C 8.265625 -2.289062 8.171875 -1.867188 8.078125 -1.453125 C 7.984375 -1.046875 7.890625 -0.628906 7.796875 -0.203125 C 4.367188 0.0234375 2.003906 -0.117188 0.703125 -0.640625 C 2.210938 -6.304688 3.492188 -11 4.546875 -14.71875 C 5.609375 -18.4375 6.445312 -21.21875 7.0625 -23.0625 C 9.863281 -23.695312 12.40625 -23.929688 14.6875 -23.765625 C 15.976562 -20.460938 17.238281 -17.039062 18.46875 -13.5 C 19.707031 -9.957031 20.921875 -6.25 22.109375 -2.375 C 20.972656 -1.726562 18.546875 -1.179688 14.828125 -0.734375 C 14.691406 -1.160156 14.566406 -1.578125 14.453125 -1.984375 C 14.347656 -2.398438 14.226562 -2.804688 14.09375 -3.203125 C 13.3125 -3.140625 12.445312 -3.066406 11.5 -2.984375 C 10.5625 -2.898438 9.515625 -2.8125 8.359375 -2.71875 Z M 12.390625 -8.890625 C 12.109375 -9.816406 11.847656 -10.648438 11.609375 -11.390625 C 11.378906 -12.128906 11.160156 -12.769531 10.953125 -13.3125 C 10.753906 -12.53125 10.554688 -11.753906 10.359375 -10.984375 C 10.160156 -10.222656 9.957031 -9.445312 9.75 -8.65625 Z M 12.390625 -8.890625 "/></g></g></g><g fill="#1791c8" fill-opacity="1"><g transform="translate(186.604444, 345.133406)"><g><path d="M 0.84375 -21.71875 L 7.171875 -23.265625 C 8.160156 -21.972656 9.195312 -20.535156 10.28125 -18.953125 C 11.363281 -17.378906 12.523438 -15.628906 13.765625 -13.703125 C 13.609375 -16.128906 13.578125 -19.15625 13.671875 -22.78125 C 16.941406 -23.0625 19.316406 -23.054688 20.796875 -22.765625 C 21.023438 -14.578125 21.023438 -7.34375 20.796875 -1.0625 C 19.671875 -0.632812 18.671875 -0.304688 17.796875 -0.078125 C 16.921875 0.140625 16.144531 0.238281 15.46875 0.21875 C 13.53125 -2.726562 10.960938 -6.25 7.765625 -10.34375 L 7.765625 0.21875 C 4.023438 0.382812 1.707031 0.359375 0.8125 0.140625 C 0.738281 -3.085938 0.707031 -6.507812 0.71875 -10.125 C 0.726562 -13.75 0.769531 -17.613281 0.84375 -21.71875 Z M 0.84375 -21.71875 "/></g></g></g><g fill="#1791c8" fill-opacity="1"><g transform="translate(208.267259, 345.133406)"><g><path d="M 8.359375 -2.71875 C 8.265625 -2.289062 8.171875 -1.867188 8.078125 -1.453125 C 7.984375 -1.046875 7.890625 -0.628906 7.796875 -0.203125 C 4.367188 0.0234375 2.003906 -0.117188 0.703125 -0.640625 C 2.210938 -6.304688 3.492188 -11 4.546875 -14.71875 C 5.609375 -18.4375 6.445312 -21.21875 7.0625 -23.0625 C 9.863281 -23.695312 12.40625 -23.929688 14.6875 -23.765625 C 15.976562 -20.460938 17.238281 -17.039062 18.46875 -13.5 C 19.707031 -9.957031 20.921875 -6.25 22.109375 -2.375 C 20.972656 -1.726562 18.546875 -1.179688 14.828125 -0.734375 C 14.691406 -1.160156 14.566406 -1.578125 14.453125 -1.984375 C 14.347656 -2.398438 14.226562 -2.804688 14.09375 -3.203125 C 13.3125 -3.140625 12.445312 -3.066406 11.5 -2.984375 C 10.5625 -2.898438 9.515625 -2.8125 8.359375 -2.71875 Z M 12.390625 -8.890625 C 12.109375 -9.816406 11.847656 -10.648438 11.609375 -11.390625 C 11.378906 -12.128906 11.160156 -12.769531 10.953125 -13.3125 C 10.753906 -12.53125 10.554688 -11.753906 10.359375 -10.984375 C 10.160156 -10.222656 9.957031 -9.445312 9.75 -8.65625 Z M 12.390625 -8.890625 "/></g></g></g><g fill="#1791c8" fill-opacity="1"><g transform="translate(231.079072, 345.133406)"><g><path d="M 7.984375 -0.25 C 4.878906 -0.851562 2.617188 -2.875 1.203125 -6.3125 C 0.941406 -7.1875 0.78125 -8.125 0.71875 -9.125 C 0.664062 -10.125 0.71875 -11.191406 0.875 -12.328125 C 1.164062 -14.441406 1.828125 -16.265625 2.859375 -17.796875 C 4.109375 -19.585938 5.6875 -21.066406 7.59375 -22.234375 C 12.4375 -24.734375 16.90625 -24.382812 21 -21.1875 L 17.1875 -15.171875 C 16.65625 -15.367188 16.109375 -15.550781 15.546875 -15.71875 C 14.992188 -15.894531 14.414062 -16.03125 13.8125 -16.125 C 11.96875 -16.382812 10.378906 -15.679688 9.046875 -14.015625 C 8.410156 -13.148438 8.078125 -12.253906 8.046875 -11.328125 C 7.878906 -9.421875 8.691406 -8.046875 10.484375 -7.203125 C 12.910156 -6.847656 14.335938 -7.445312 14.765625 -9 C 12.023438 -8.769531 10.597656 -8.664062 10.484375 -8.6875 C 10.441406 -9.71875 10.421875 -10.664062 10.421875 -11.53125 C 10.421875 -12.40625 10.453125 -13.195312 10.515625 -13.90625 C 14.210938 -14.28125 17.019531 -14.554688 18.9375 -14.734375 C 20.851562 -14.910156 21.894531 -14.976562 22.0625 -14.9375 C 22.09375 -13.925781 22.113281 -12.988281 22.125 -12.125 C 22.132812 -11.269531 22.128906 -10.453125 22.109375 -9.671875 C 22.109375 -8.804688 21.988281 -8.003906 21.75 -7.265625 C 19.675781 -1.804688 15.085938 0.53125 7.984375 -0.25 Z M 7.984375 -0.25 "/></g></g></g><g fill="#1791c8" fill-opacity="1"><g transform="translate(253.918909, 345.133406)"><g><path d="M 16.625 -22.984375 C 16.71875 -21.921875 16.757812 -20.875 16.75 -19.84375 C 16.738281 -18.8125 16.6875 -17.800781 16.59375 -16.8125 L 7.453125 -15.953125 L 7.484375 -13.796875 L 16.25 -14.546875 L 16.25 -8.640625 C 16.082031 -8.597656 15.273438 -8.507812 13.828125 -8.375 C 12.378906 -8.25 10.289062 -8.066406 7.5625 -7.828125 L 7.59375 -5.78125 C 13.257812 -6.425781 16.28125 -6.734375 16.65625 -6.703125 C 16.820312 -4.285156 16.820312 -2.273438 16.65625 -0.671875 C 12.945312 -0.109375 7.6875 0.335938 0.875 0.671875 C 0.78125 -2.691406 0.726562 -6.207031 0.71875 -9.875 C 0.707031 -13.550781 0.75 -17.414062 0.84375 -21.46875 C 6.875 -22.3125 12.132812 -22.816406 16.625 -22.984375 Z M 16.625 -22.984375 "/></g></g></g><g fill="#1791c8" fill-opacity="1"><g transform="translate(271.406097, 345.133406)"><g><path d="M 7.875 -8.578125 C 7.851562 -7.378906 7.84375 -6.113281 7.84375 -4.78125 C 7.84375 -3.457031 7.835938 -2.039062 7.828125 -0.53125 C 6.703125 -0.363281 5.566406 -0.222656 4.421875 -0.109375 C 3.285156 0.00390625 2.128906 0.078125 0.953125 0.109375 C 0.804688 -3.992188 0.722656 -7.847656 0.703125 -11.453125 C 0.679688 -15.066406 0.707031 -18.488281 0.78125 -21.71875 C 2.257812 -22.207031 3.648438 -22.609375 4.953125 -22.921875 C 6.265625 -23.242188 7.492188 -23.476562 8.640625 -23.625 C 8.898438 -23.125 9.210938 -22.429688 9.578125 -21.546875 C 9.941406 -20.671875 10.363281 -19.597656 10.84375 -18.328125 C 11.332031 -17.078125 11.757812 -16.050781 12.125 -15.25 C 12.488281 -14.445312 12.773438 -13.859375 12.984375 -13.484375 C 13.765625 -14.617188 15.144531 -17.773438 17.125 -22.953125 C 19.351562 -23.117188 21.914062 -23.019531 24.8125 -22.65625 C 24.90625 -19.53125 24.953125 -16.144531 24.953125 -12.5 C 24.960938 -8.851562 24.921875 -4.890625 24.828125 -0.609375 C 23.765625 -0.460938 22.660156 -0.332031 21.515625 -0.21875 C 20.378906 -0.113281 19.195312 -0.03125 17.96875 0.03125 C 17.894531 -0.269531 17.847656 -2.894531 17.828125 -7.84375 C 14.742188 -1.925781 13.085938 1.050781 12.859375 1.09375 Z M 7.875 -8.578125 "/></g></g></g><g fill="#1791c8" fill-opacity="1"><g transform="translate(297.076392, 345.133406)"><g><path d="M 16.625 -22.984375 C 16.71875 -21.921875 16.757812 -20.875 16.75 -19.84375 C 16.738281 -18.8125 16.6875 -17.800781 16.59375 -16.8125 L 7.453125 -15.953125 L 7.484375 -13.796875 L 16.25 -14.546875 L 16.25 -8.640625 C 16.082031 -8.597656 15.273438 -8.507812 13.828125 -8.375 C 12.378906 -8.25 10.289062 -8.066406 7.5625 -7.828125 L 7.59375 -5.78125 C 13.257812 -6.425781 16.28125 -6.734375 16.65625 -6.703125 C 16.820312 -4.285156 16.820312 -2.273438 16.65625 -0.671875 C 12.945312 -0.109375 7.6875 0.335938 0.875 0.671875 C 0.78125 -2.691406 0.726562 -6.207031 0.71875 -9.875 C 0.707031 -13.550781 0.75 -17.414062 0.84375 -21.46875 C 6.875 -22.3125 12.132812 -22.816406 16.625 -22.984375 Z M 16.625 -22.984375 "/></g></g></g><g fill="#1791c8" fill-opacity="1"><g transform="translate(314.56358, 345.133406)"><g><path d="M 0.84375 -21.71875 L 7.171875 -23.265625 C 8.160156 -21.972656 9.195312 -20.535156 10.28125 -18.953125 C 11.363281 -17.378906 12.523438 -15.628906 13.765625 -13.703125 C 13.609375 -16.128906 13.578125 -19.15625 13.671875 -22.78125 C 16.941406 -23.0625 19.316406 -23.054688 20.796875 -22.765625 C 21.023438 -14.578125 21.023438 -7.34375 20.796875 -1.0625 C 19.671875 -0.632812 18.671875 -0.304688 17.796875 -0.078125 C 16.921875 0.140625 16.144531 0.238281 15.46875 0.21875 C 13.53125 -2.726562 10.960938 -6.25 7.765625 -10.34375 L 7.765625 0.21875 C 4.023438 0.382812 1.707031 0.359375 0.8125 0.140625 C 0.738281 -3.085938 0.707031 -6.507812 0.71875 -10.125 C 0.726562 -13.75 0.769531 -17.613281 0.84375 -21.71875 Z M 0.84375 -21.71875 "/></g></g></g><g fill="#1791c8" fill-opacity="1"><g transform="translate(336.226395, 345.133406)"><g><path d="M 14.09375 -16.421875 C 14.132812 -13.003906 14.15625 -9.988281 14.15625 -7.375 C 14.15625 -4.769531 14.117188 -2.554688 14.046875 -0.734375 C 12.398438 -0.472656 10.992188 -0.296875 9.828125 -0.203125 C 8.660156 -0.109375 7.710938 -0.0976562 6.984375 -0.171875 C 6.941406 -2.648438 6.910156 -5.179688 6.890625 -7.765625 C 6.878906 -10.359375 6.890625 -13.039062 6.921875 -15.8125 C 5.085938 -15.644531 3.070312 -15.472656 0.875 -15.296875 C 0.78125 -16.273438 0.726562 -17.316406 0.71875 -18.421875 C 0.707031 -19.535156 0.75 -20.726562 0.84375 -22 C 4.238281 -22.394531 7.554688 -22.738281 10.796875 -23.03125 C 14.046875 -23.332031 17.25 -23.585938 20.40625 -23.796875 C 20.5 -21.742188 20.472656 -19.507812 20.328125 -17.09375 C 19.835938 -16.988281 17.757812 -16.765625 14.09375 -16.421875 Z M 14.09375 -16.421875 "/></g></g></g></svg>